<?xml version="1.0" encoding="UTF-8" standalone="no"?><!DOCTYPE svg PUBLIC "-//W3C//DTD SVG 1.1//EN" "http://www.w3.org/Graphics/SVG/1.1/DTD/svg11.dtd"><svg width="100%" height="100%" viewBox="0 0 167 167" version="1.1" fill="grey" xmlns="http://www.w3.org/2000/svg" xmlns:xlink="http://www.w3.org/1999/xlink" xml:space="preserve" xmlns:serif="http://www.serif.com/" style="fill-rule:evenodd;clip-rule:evenodd;stroke-linejoin:round;stroke-miterlimit:2;"><path d="M89.583,100l-12.5,0l0,-27.083l-27.083,-0l0,-12.5l27.083,-0l0,-27.084l12.5,0l0,27.084l27.084,-0l-0,12.5l-27.084,-0l0,27.083Zm77.084,66.667l-0,-154.167c-0,-3.194 -1.25,-6.076 -3.75,-8.646c-2.5,-2.569 -5.417,-3.854 -8.75,-3.854l-141.667,0c-3.194,0 -6.076,1.285 -8.646,3.854c-2.569,2.57 -3.854,5.452 -3.854,8.646l0,108.333c0,3.195 1.285,6.077 3.854,8.646c2.57,2.57 5.452,3.854 8.646,3.854l120.833,0l33.334,33.334Zm-12.5,-30.209l-15.625,-15.625l-126.042,0l0,-108.333l141.667,0l-0,123.958Zm-0,-123.958l-0,123.958l-0,-123.958Z" style="fill-rule:nonzero;"/></svg>