<?xml version="1.0" encoding="UTF-8" standalone="no"?><!DOCTYPE svg PUBLIC "-//W3C//DTD SVG 1.1//EN" "http://www.w3.org/Graphics/SVG/1.1/DTD/svg11.dtd"><svg width="100%" height="100%" viewBox="0 0 117 150" version="1.1" xmlns="http://www.w3.org/2000/svg" xmlns:xlink="http://www.w3.org/1999/xlink" xml:space="preserve" xmlns:serif="http://www.serif.com/" style="fill-rule:evenodd;clip-rule:evenodd;stroke-linejoin:round;stroke-miterlimit:2;"><path d="M40.625,113.958l17.708,-17.708l17.709,17.708l8.75,-8.75l-17.709,-17.708l17.709,-17.708l-8.75,-8.75l-17.709,17.708l-17.708,-17.708l-8.75,8.75l17.708,17.708l-17.708,17.708l8.75,8.75Zm-19.792,23.542l75,0l0,-100l-75,0l0,100Zm-18.75,-116.667l0,-12.5l27.917,0l8.333,-8.333l40,0l8.334,8.333l27.916,0l0,12.5l-112.5,0Zm18.75,129.167c-3.333,0 -6.25,-1.25 -8.75,-3.75c-2.5,-2.5 -3.75,-5.417 -3.75,-8.75l0,-112.5l100,0l0,112.5c0,3.333 -1.25,6.25 -3.75,8.75c-2.5,2.5 -5.416,3.75 -8.75,3.75l-75,0Zm0,-12.5l75,0l-75,0Z" style="fill:#808080;fill-rule:nonzero;"/></svg>