<?xml version="1.0" encoding="UTF-8" standalone="no"?><!DOCTYPE svg PUBLIC "-//W3C//DTD SVG 1.1//EN" "http://www.w3.org/Graphics/SVG/1.1/DTD/svg11.dtd"><svg width="100%" height="100%" viewBox="0 0 155 155" version="1.1" xmlns="http://www.w3.org/2000/svg" xmlns:xlink="http://www.w3.org/1999/xlink" xml:space="preserve" fill="#DBA800" xmlns:serif="http://www.serif.com/" style="fill-rule:evenodd;clip-rule:evenodd;stroke-linejoin:round;stroke-miterlimit:2;"><path d="M12.5,141.667l9.167,-0l101.041,-101.042l-9.166,-9.167l-101.042,101.042l0,9.167Zm-12.5,12.5l0,-26.667l122.5,-122.5c2.361,-2.361 5.313,-3.507 8.854,-3.438c3.542,0.07 6.493,1.285 8.854,3.646l8.959,8.959c2.361,2.361 3.541,5.277 3.541,8.75c0,3.472 -1.18,6.389 -3.541,8.75l-122.5,122.5l-26.667,-0Zm139.583,-131.459l-8.541,-8.541l8.541,8.541Zm-16.875,17.917l-9.166,-9.167l9.166,9.167Z" style="fill-rule:nonzero;"/></svg>