<?xml version="1.0" encoding="UTF-8" standalone="no"?><!DOCTYPE svg PUBLIC "-//W3C//DTD SVG 1.1//EN" "http://www.w3.org/Graphics/SVG/1.1/DTD/svg11.dtd"><svg width="100%" height="100%" viewBox="0 0 1367 1025" version="1.1" xmlns="http://www.w3.org/2000/svg" xmlns:xlink="http://www.w3.org/1999/xlink" xml:space="preserve" xmlns:serif="http://www.serif.com/" style="fill-rule:evenodd;clip-rule:evenodd;stroke-linejoin:round;stroke-miterlimit:2;"><g><path d="M1363.73,83.775c-3.479,-9.683 -12.675,-16.179 -22.967,-16.179l-608.921,-0c-6.145,-0 -12.054,2.312 -16.558,6.471l-204.204,188.587l-253.971,-253.975c-0.275,-0.258 -0.633,-0.417 -0.904,-0.679c-0.879,-0.808 -1.883,-1.467 -2.871,-2.158c-1.062,-0.7 -2.062,-1.379 -3.183,-1.892c-0.333,-0.154 -0.583,-0.421 -0.929,-0.562c-0.704,-0.296 -1.429,-0.321 -2.146,-0.534c-1.242,-0.391 -2.442,-0.762 -3.729,-0.929c-1.167,-0.179 -2.3,-0.179 -3.467,-0.179c-1.167,-0 -2.287,-0 -3.467,0.179c-1.287,0.192 -2.512,0.563 -3.75,0.954c-0.679,0.217 -1.416,0.242 -2.095,0.538c-0.346,0.141 -0.584,0.383 -0.905,0.562c-1.141,0.533 -2.191,1.238 -3.241,1.954c-0.975,0.654 -1.954,1.309 -2.834,2.096c-0.295,0.263 -0.629,0.417 -0.929,0.679l-215.5,215.496c-6.979,6.979 -9.079,17.463 -5.291,26.588c3.775,9.125 12.687,15.058 22.537,15.058l191.1,0l0,280.563c0,0.07 0.025,0.116 0.025,0.166c0,0.05 -0.025,0.096 -0.025,0.142c0,0.191 0.121,0.383 0.146,0.6c0.129,2.879 0.808,5.6 1.858,8.146c0.321,0.741 0.654,1.454 1.025,2.17c1.25,2.334 2.788,4.48 4.704,6.288c0.25,0.242 0.346,0.575 0.596,0.812l264.279,231.771c0.205,0.163 0.467,0.238 0.692,0.429c1.142,3.738 2.908,7.288 5.754,10.15l207.492,207.517c4.671,4.646 10.925,7.15 17.267,7.15c3.145,0 6.312,-0.6 9.337,-1.858c9.121,-3.763 15.054,-12.675 15.054,-22.538l0,-384.058l612.563,-502.425c7.937,-6.538 10.937,-17.388 7.458,-27.1Zm-1099.48,403.717l0,-402.667l201.346,201.346l-201.346,201.321Zm-181,-270.463l132.204,-132.204l0,132.204l-132.204,0Zm611.6,721.425l-147.5,-147.525l147.5,-130.442l0,277.967Zm-190.192,-192.271l-228.354,-200.271l465.088,-429.516l531.133,-0l-767.867,629.787Z" style="fill:#35CE8D;fill-rule:nonzero;"/></g></svg>